<?xml version="1.0" encoding="UTF-8" standalone="no"?>
<!-- Generated by graphviz version 2.38.0 (20140413.2041)
 -->

<!-- Title: %3 Pages: 1 -->

<svg
   xmlns:dc="http://purl.org/dc/elements/1.1/"
   xmlns:cc="http://creativecommons.org/ns#"
   xmlns:rdf="http://www.w3.org/1999/02/22-rdf-syntax-ns#"
   xmlns:svg="http://www.w3.org/2000/svg"
   xmlns="http://www.w3.org/2000/svg"
   xmlns:sodipodi="http://sodipodi.sourceforge.net/DTD/sodipodi-0.dtd"
   xmlns:inkscape="http://www.inkscape.org/namespaces/inkscape"
   width="480.80005pt"
   height="665.79999pt"
   viewBox="0 0 480.31925 665.79998"
   id="svg4635"
   version="1.1"
   inkscape:version="0.91 r13725"
   sodipodi:docname="do_lung.svg">
  <metadata
     id="metadata4912">
    <rdf:RDF>
      <cc:Work
         rdf:about="">
        <dc:format>image/svg+xml</dc:format>
        <dc:type
           rdf:resource="http://purl.org/dc/dcmitype/StillImage" />
        <dc:title></dc:title>
      </cc:Work>
    </rdf:RDF>
  </metadata>
  <defs
     id="defs4910">
    <marker
       inkscape:isstock="true"
       style="overflow:visible"
       id="marker6268"
       refX="0"
       refY="0"
       orient="auto"
       inkscape:stockid="Arrow1Lstart">
      <path
         transform="matrix(0.8,0,0,0.8,10,0)"
         style="fill:#000000;fill-opacity:1;fill-rule:evenodd;stroke:#000000;stroke-width:1pt;stroke-opacity:1"
         d="M 0,0 5,-5 -12.5,0 5,5 0,0 Z"
         id="path6270"
         inkscape:connector-curvature="0" />
    </marker>
    <marker
       inkscape:isstock="true"
       style="overflow:visible"
       id="marker6264"
       refX="0"
       refY="0"
       orient="auto"
       inkscape:stockid="Arrow1Lstart">
      <path
         transform="matrix(0.8,0,0,0.8,10,0)"
         style="fill:#000000;fill-opacity:1;fill-rule:evenodd;stroke:#000000;stroke-width:1pt;stroke-opacity:1"
         d="M 0,0 5,-5 -12.5,0 5,5 0,0 Z"
         id="path6266"
         inkscape:connector-curvature="0" />
    </marker>
    <marker
       inkscape:isstock="true"
       style="overflow:visible"
       id="marker6260"
       refX="0"
       refY="0"
       orient="auto"
       inkscape:stockid="Arrow1Lstart">
      <path
         transform="matrix(0.8,0,0,0.8,10,0)"
         style="fill:#000000;fill-opacity:1;fill-rule:evenodd;stroke:#000000;stroke-width:1pt;stroke-opacity:1"
         d="M 0,0 5,-5 -12.5,0 5,5 0,0 Z"
         id="path6262"
         inkscape:connector-curvature="0" />
    </marker>
    <marker
       inkscape:isstock="true"
       style="overflow:visible"
       id="marker6256"
       refX="0"
       refY="0"
       orient="auto"
       inkscape:stockid="Arrow1Lstart">
      <path
         transform="matrix(0.8,0,0,0.8,10,0)"
         style="fill:#000000;fill-opacity:1;fill-rule:evenodd;stroke:#000000;stroke-width:1pt;stroke-opacity:1"
         d="M 0,0 5,-5 -12.5,0 5,5 0,0 Z"
         id="path6258"
         inkscape:connector-curvature="0" />
    </marker>
    <marker
       inkscape:isstock="true"
       style="overflow:visible"
       id="marker6252"
       refX="0"
       refY="0"
       orient="auto"
       inkscape:stockid="Arrow1Lstart">
      <path
         transform="matrix(0.8,0,0,0.8,10,0)"
         style="fill:#000000;fill-opacity:1;fill-rule:evenodd;stroke:#000000;stroke-width:1pt;stroke-opacity:1"
         d="M 0,0 5,-5 -12.5,0 5,5 0,0 Z"
         id="path6254"
         inkscape:connector-curvature="0" />
    </marker>
    <marker
       inkscape:isstock="true"
       style="overflow:visible"
       id="marker6248"
       refX="0"
       refY="0"
       orient="auto"
       inkscape:stockid="Arrow1Lstart">
      <path
         transform="matrix(0.8,0,0,0.8,10,0)"
         style="fill:#000000;fill-opacity:1;fill-rule:evenodd;stroke:#000000;stroke-width:1pt;stroke-opacity:1"
         d="M 0,0 5,-5 -12.5,0 5,5 0,0 Z"
         id="path6250"
         inkscape:connector-curvature="0" />
    </marker>
    <marker
       inkscape:isstock="true"
       style="overflow:visible"
       id="marker6244"
       refX="0"
       refY="0"
       orient="auto"
       inkscape:stockid="Arrow1Lstart">
      <path
         transform="matrix(0.8,0,0,0.8,10,0)"
         style="fill:#000000;fill-opacity:1;fill-rule:evenodd;stroke:#000000;stroke-width:1pt;stroke-opacity:1"
         d="M 0,0 5,-5 -12.5,0 5,5 0,0 Z"
         id="path6246"
         inkscape:connector-curvature="0" />
    </marker>
    <marker
       inkscape:isstock="true"
       style="overflow:visible"
       id="marker6240"
       refX="0"
       refY="0"
       orient="auto"
       inkscape:stockid="Arrow1Lstart">
      <path
         transform="matrix(0.8,0,0,0.8,10,0)"
         style="fill:#000000;fill-opacity:1;fill-rule:evenodd;stroke:#000000;stroke-width:1pt;stroke-opacity:1"
         d="M 0,0 5,-5 -12.5,0 5,5 0,0 Z"
         id="path6242"
         inkscape:connector-curvature="0" />
    </marker>
    <marker
       inkscape:isstock="true"
       style="overflow:visible"
       id="marker6236"
       refX="0"
       refY="0"
       orient="auto"
       inkscape:stockid="Arrow1Lstart">
      <path
         transform="matrix(0.8,0,0,0.8,10,0)"
         style="fill:#000000;fill-opacity:1;fill-rule:evenodd;stroke:#000000;stroke-width:1pt;stroke-opacity:1"
         d="M 0,0 5,-5 -12.5,0 5,5 0,0 Z"
         id="path6238"
         inkscape:connector-curvature="0" />
    </marker>
    <marker
       inkscape:isstock="true"
       style="overflow:visible"
       id="marker6232"
       refX="0"
       refY="0"
       orient="auto"
       inkscape:stockid="Arrow1Lstart">
      <path
         transform="matrix(0.8,0,0,0.8,10,0)"
         style="fill:#000000;fill-opacity:1;fill-rule:evenodd;stroke:#000000;stroke-width:1pt;stroke-opacity:1"
         d="M 0,0 5,-5 -12.5,0 5,5 0,0 Z"
         id="path6234"
         inkscape:connector-curvature="0" />
    </marker>
    <marker
       inkscape:isstock="true"
       style="overflow:visible"
       id="marker6228"
       refX="0"
       refY="0"
       orient="auto"
       inkscape:stockid="Arrow1Lstart">
      <path
         transform="matrix(0.8,0,0,0.8,10,0)"
         style="fill:#000000;fill-opacity:1;fill-rule:evenodd;stroke:#000000;stroke-width:1pt;stroke-opacity:1"
         d="M 0,0 5,-5 -12.5,0 5,5 0,0 Z"
         id="path6230"
         inkscape:connector-curvature="0" />
    </marker>
    <marker
       inkscape:isstock="true"
       style="overflow:visible"
       id="marker6224"
       refX="0"
       refY="0"
       orient="auto"
       inkscape:stockid="Arrow1Lstart">
      <path
         transform="matrix(0.8,0,0,0.8,10,0)"
         style="fill:#000000;fill-opacity:1;fill-rule:evenodd;stroke:#000000;stroke-width:1pt;stroke-opacity:1"
         d="M 0,0 5,-5 -12.5,0 5,5 0,0 Z"
         id="path6226"
         inkscape:connector-curvature="0" />
    </marker>
    <marker
       inkscape:isstock="true"
       style="overflow:visible"
       id="marker6220"
       refX="0"
       refY="0"
       orient="auto"
       inkscape:stockid="Arrow1Lstart">
      <path
         transform="matrix(0.8,0,0,0.8,10,0)"
         style="fill:#000000;fill-opacity:1;fill-rule:evenodd;stroke:#000000;stroke-width:1pt;stroke-opacity:1"
         d="M 0,0 5,-5 -12.5,0 5,5 0,0 Z"
         id="path6222"
         inkscape:connector-curvature="0" />
    </marker>
    <marker
       inkscape:stockid="Arrow1Lstart"
       orient="auto"
       refY="0"
       refX="0"
       id="Arrow1Lstart"
       style="overflow:visible"
       inkscape:isstock="true"
       inkscape:collect="always">
      <path
         id="path5962"
         d="M 0,0 5,-5 -12.5,0 5,5 0,0 Z"
         style="fill:#000000;fill-opacity:1;fill-rule:evenodd;stroke:#000000;stroke-width:1pt;stroke-opacity:1"
         transform="matrix(0.8,0,0,0.8,10,0)"
         inkscape:connector-curvature="0" />
    </marker>
    <marker
       inkscape:stockid="Arrow1Lend"
       orient="auto"
       refY="0"
       refX="0"
       id="Arrow1Lend"
       style="overflow:visible"
       inkscape:isstock="true"
       inkscape:collect="always">
      <path
         inkscape:connector-curvature="0"
         id="path5011"
         d="M 0,0 5,-5 -12.5,0 5,5 0,0 Z"
         style="fill:#000000;fill-opacity:1;fill-rule:evenodd;stroke:#000000;stroke-width:1pt;stroke-opacity:1"
         transform="matrix(-0.8,0,0,-0.8,-10,0)" />
    </marker>
  </defs>
  <sodipodi:namedview
     pagecolor="#ffffff"
     bordercolor="#666666"
     borderopacity="1"
     objecttolerance="10"
     gridtolerance="10"
     guidetolerance="10"
     inkscape:pageopacity="0"
     inkscape:pageshadow="2"
     inkscape:window-width="1916"
     inkscape:window-height="1057"
     id="namedview4908"
     showgrid="false"
     inkscape:zoom="0.76455268"
     inkscape:cx="279.50951"
     inkscape:cy="442.53146"
     inkscape:window-x="-2"
     inkscape:window-y="17"
     inkscape:window-maximized="1"
     inkscape:current-layer="layer1"
     fit-margin-top="2"
     fit-margin-left="2"
     fit-margin-right="2"
     fit-margin-bottom="2" />
  <g
     inkscape:groupmode="layer"
     id="layer1"
     inkscape:label="Base"
     style="display:inline"
     transform="translate(-9.8424562,-5.6)">
    <polygon
       points="310,-642 310,-665 371,-665 371,-642 310,-642 "
       id="polygon4645"
       style="fill:#2a5da7;fill-opacity:1;stroke:none"
       transform="translate(4,673)" />
    <text
       x="344.30176"
       y="23.200012"
       font-size="14.00"
       id="text4647"
       style="font-size:13px;font-family:Arial;text-align:center;text-anchor:middle;fill:#ffffff">DOID:4</text>
    <text
       x="344.25391"
       y="46.200012"
       font-size="14.00"
       id="text4651"
       style="font-size:13px;font-family:Arial;text-align:center;text-anchor:middle">Disease</text>
    <polygon
       points="282,-551.5 282,-574.5 399,-574.5 399,-551.5 282,-551.5 "
       id="polygon4656"
       style="fill:#2a5da7;fill-opacity:1;stroke:none"
       transform="translate(4,673)" />
    <text
       x="344.28125"
       y="113.70001"
       font-size="14.00"
       id="text4658"
       style="font-size:13px;font-family:Arial;text-align:center;text-anchor:middle;fill:#ffffff">DOID:7</text>
    <text
       x="343.71387"
       y="136.70001"
       font-size="14.00"
       id="text4662"
       style="font-size:13px;font-family:Arial;text-align:center;text-anchor:middle">Disease Of</text>
    <text
       x="344.57178"
       y="151.70001"
       font-size="14.00"
       id="text4664"
       style="font-size:13px;font-family:Arial;text-align:center;text-anchor:middle">Anatomical Entity</text>
    <polygon
       points="196,-446.5 196,-469.5 329,-469.5 329,-446.5 196,-446.5 "
       id="polygon4676"
       style="fill:#2a5da7;fill-opacity:1;stroke:none"
       transform="translate(4,673)" />
    <text
       x="266.271"
       y="218.70001"
       font-size="14.00"
       id="text4678"
       style="font-size:13px;font-family:Arial;text-align:center;text-anchor:middle;fill:#ffffff">DOID:1579</text>
    <text
       x="266.40771"
       y="241.70001"
       font-size="14.00"
       id="text4682"
       style="font-size:13px;font-family:Arial;text-align:center;text-anchor:middle">Respiratory System</text>
    <text
       x="266.25391"
       y="256.70001"
       font-size="14.00"
       id="text4684"
       style="font-size:13px;font-family:Arial;text-align:center;text-anchor:middle">Disease</text>
    <polygon
       points="363,-446.5 363,-469.5 475,-469.5 475,-446.5 363,-446.5 "
       id="polygon4696"
       style="fill:#2a5da7;fill-opacity:1;stroke:none"
       transform="translate(4,673)" />
    <text
       x="422.80176"
       y="218.70001"
       font-size="14.00"
       id="text4698"
       style="font-size:13px;font-family:Arial;text-align:center;text-anchor:middle;fill:#ffffff">DOID:2914</text>
    <text
       x="422.80518"
       y="241.70001"
       font-size="14.00"
       id="text4702"
       style="font-size:13px;font-family:Arial;text-align:center;text-anchor:middle">Immune System</text>
    <text
       x="422.75391"
       y="256.70001"
       font-size="14.00"
       id="text4704"
       style="font-size:13px;font-family:Arial;text-align:center;text-anchor:middle">Disease</text>
    <polygon
       points="200,-341.5 200,-364.5 324,-364.5 324,-341.5 200,-341.5 "
       id="polygon4716"
       style="fill:#2a5da7;fill-opacity:1;stroke:none"
       transform="translate(4,673)" />
    <text
       x="266.74854"
       y="323.70001"
       font-size="14.00"
       id="text4718"
       style="font-size:13px;font-family:Arial;text-align:center;text-anchor:middle;fill:#ffffff">DOID:0050161</text>
    <text
       x="265.54883"
       y="346.70001"
       font-size="14.00"
       id="text4722"
       style="font-size:13px;font-family:Arial;text-align:center;text-anchor:middle">Lower Respiratory</text>
    <text
       x="266.12988"
       y="361.70001"
       font-size="14.00"
       id="text4724"
       style="font-size:13px;font-family:Arial;text-align:center;text-anchor:middle">Tract Disease</text>
    <polygon
       points="75,-222 75,-245 198,-245 198,-222 75,-222 "
       id="polygon4736"
       style="fill:#2a5da7;fill-opacity:1;stroke:none"
       transform="translate(4,673)" />
    <text
       x="140.28467"
       y="443.20001"
       font-size="14.00"
       id="text4738"
       style="font-size:13px;font-family:Arial;text-align:center;text-anchor:middle;fill:#ffffff">DOID:1176</text>
    <text
       x="140.28125"
       y="466.20001"
       font-size="14.00"
       id="text4742"
       style="font-size:13px;font-family:Arial;text-align:center;text-anchor:middle">Bronchial Disease</text>
    <polygon
       points="232,-222 232,-245 328,-245 328,-222 232,-222 "
       id="polygon4754"
       style="fill:#2a5da7;fill-opacity:1;stroke:none"
       transform="translate(4,673)" />
    <text
       x="283.79834"
       y="443.20001"
       font-size="14.00"
       id="text4756"
       style="font-size:13px;font-family:Arial;text-align:center;text-anchor:middle;fill:#ffffff">DOID:850</text>
    <text
       x="283.78125"
       y="466.20001"
       font-size="14.00"
       id="text4760"
       style="font-size:13px;font-family:Arial;text-align:center;text-anchor:middle">Lung Disease</text>
    <polygon
       points="8,-117 8,-140 90,-140 90,-117 8,-117 "
       id="polygon4772"
       style="fill:#2a5da7;fill-opacity:1;stroke:none"
       transform="translate(4,673)" />
    <text
       x="52.83252"
       y="548.20001"
       font-size="14.00"
       id="text4774"
       style="font-size:13px;font-family:Arial;text-align:center;text-anchor:middle;fill:#ffffff">DOID:6132</text>
    <text
       x="52.757324"
       y="571.20001"
       font-size="14.00"
       id="text4778"
       style="font-size:13px;font-family:Arial;text-align:center;text-anchor:middle">Bronchitis</text>
    <polygon
       points="124,-117 124,-140 206,-140 206,-117 124,-117 "
       id="polygon4790"
       style="fill:#2a5da7;fill-opacity:1;stroke:none"
       transform="translate(4,673)" />
    <text
       x="169.74854"
       y="548.20001"
       font-size="14.00"
       id="text4792"
       style="font-size:13px;font-family:Arial;text-align:center;text-anchor:middle;fill:#ffffff">DOID:2841</text>
    <text
       x="169.31104"
       y="571.20001"
       font-size="14.00"
       id="text4796"
       style="font-size:13px;font-family:Arial;text-align:center;text-anchor:middle">Asthma</text>
    <polygon
       points="240,-117 240,-140 320,-140 320,-117 240,-117 "
       id="polygon4808"
       style="fill:#2a5da7;fill-opacity:1;stroke:none"
       transform="translate(4,673)" />
    <text
       x="283.83252"
       y="548.20001"
       font-size="14.00"
       id="text4810"
       style="font-size:13px;font-family:Arial;text-align:center;text-anchor:middle;fill:#ffffff">DOID:552</text>
    <text
       x="283.76074"
       y="571.20001"
       font-size="14.00"
       id="text4814"
       style="font-size:13px;font-family:Arial;text-align:center;text-anchor:middle">Pneumonia</text>
    <polygon
       points="359,-341.5 359,-364.5 480,-364.5 480,-341.5 359,-341.5 "
       id="polygon4826"
       style="fill:#2a5da7;fill-opacity:1;stroke:none"
       transform="translate(4,673)" />
    <text
       x="423.28467"
       y="323.70001"
       font-size="14.00"
       id="text4828"
       style="font-size:13px;font-family:Arial;text-align:center;text-anchor:middle;fill:#ffffff">DOID:0060056</text>
    <text
       x="423.00098"
       y="346.70001"
       font-size="14.00"
       id="text4832"
       style="font-size:13px;font-family:Arial;text-align:center;text-anchor:middle">Hypersensitivity</text>
    <text
       x="423.24365"
       y="361.70001"
       font-size="14.00"
       id="text4834"
       style="font-size:13px;font-family:Arial;text-align:center;text-anchor:middle">Reaction Disease</text>
    <polygon
       points="366,-237 366,-260 473,-260 473,-237 366,-237 "
       id="polygon4846"
       style="fill:#2a5da7;fill-opacity:1;stroke:none"
       transform="translate(4,673)" />
    <text
       x="423.24365"
       y="428.20001"
       font-size="14.00"
       id="text4848"
       style="font-size:13px;font-family:Arial;text-align:center;text-anchor:middle;fill:#ffffff">DOID:1205</text>
    <text
       x="423.5752"
       y="451.20001"
       font-size="14.00"
       id="text4852"
       style="font-size:13px;font-family:Arial;text-align:center;text-anchor:middle">Allergic</text>
    <text
       x="423.00098"
       y="466.20001"
       font-size="14.00"
       id="text4854"
       style="font-size:13px;font-family:Arial;text-align:center;text-anchor:middle">Hypersensitivity</text>
    <polygon
       points="355,-117 355,-140 484,-140 484,-117 355,-117 "
       id="polygon4868"
       style="fill:#2a5da7;fill-opacity:1;stroke:none"
       transform="translate(4,673)" />
    <text
       x="423.28467"
       y="548.20001"
       font-size="14.00"
       id="text4870"
       style="font-size:13px;font-family:Arial;text-align:center;text-anchor:middle;fill:#ffffff">DOID:0060496</text>
    <text
       x="423.01123"
       y="571.20001"
       font-size="14.00"
       id="text4874"
       style="font-size:13px;font-family:Arial;text-align:center;text-anchor:middle">Respiratory Allergy</text>
    <polygon
       points="238,-27 238,-50 346,-50 346,-27 238,-27 "
       id="polygon4886"
       style="fill:#2a5da7;fill-opacity:1;stroke:none"
       transform="translate(4,673)" />
    <text
       x="295.74365"
       y="638.20001"
       font-size="14.00"
       id="text4888"
       style="font-size:13px;font-family:Arial;text-align:center;text-anchor:middle;fill:#ffffff">DOID:9415</text>
    <text
       x="296.31104"
       y="661.20001"
       font-size="14.00"
       id="text4892"
       style="font-size:13px;font-family:Arial;text-align:center;text-anchor:middle">Allergic Asthma</text>
    <text
       x="423.25391"
       y="481.20001"
       font-size="14.00"
       id="text4856"
       style="font-size:13px;font-family:Arial;text-align:center;text-anchor:middle;display:inline">Disease</text>
    <path
       style="display:inline;fill:none;fill-rule:evenodd;stroke:#000000;stroke-width:1.08309674;stroke-linecap:butt;stroke-linejoin:miter;stroke-miterlimit:4;stroke-dasharray:none;stroke-opacity:1;marker-end:url(#Arrow1Lend)"
       d="m 432.28156,19.738771 28.31705,0"
       id="path5570"
       inkscape:connector-curvature="0"
       sodipodi:nodetypes="cc" />
    <text
       xml:space="preserve"
       style="font-style:normal;font-weight:normal;font-size:18.95419121px;line-height:125%;font-family:sans-serif;text-align:center;letter-spacing:0px;word-spacing:0px;text-anchor:middle;display:inline;fill:#000000;fill-opacity:1;stroke:none;stroke-width:1px;stroke-linecap:butt;stroke-linejoin:miter;stroke-opacity:1"
       x="477.09686"
       y="23.473333"
       id="text5596"
       sodipodi:linespacing="125%"><tspan
         sodipodi:role="line"
         id="tspan5598"
         x="477.09686"
         y="23.473333"
         style="font-style:normal;font-variant:normal;font-weight:normal;font-stretch:normal;font-size:12.86177063px;font-family:Arial;-inkscape-font-specification:Arial">is a</tspan></text>
  </g>
  <g
     inkscape:groupmode="layer"
     id="layer3"
     inkscape:label="Boxes"
     style="display:inline"
     transform="translate(-9.8424562,-5.6)">
    <path
       style="fill:none;stroke:#000000;stroke-width:1;stroke-miterlimit:4;stroke-dasharray:none;stroke-opacity:1"
       d="m 392.8125,10 0,28.75 0,28.75 76.25,0 0,-28.75 0,-28.75 -76.25,0 z"
       id="polygon6313"
       transform="matrix(0.8,0,0,0.8,-0.25,0)"
       inkscape:connector-curvature="0" />
    <path
       style="fill:none;stroke:#000000;stroke-width:1;stroke-miterlimit:4;stroke-dasharray:none;stroke-opacity:1"
       d="m 357.8125,123.125 0,28.75 0,47.5 146.25,0 0,-47.5 0,-28.75 -146.25,0 z"
       id="polygon6319"
       transform="matrix(0.8,0,0,0.8,-0.25,0)"
       inkscape:connector-curvature="0" />
    <path
       style="fill:none;stroke:#000000;stroke-width:1;stroke-miterlimit:4;stroke-dasharray:none;stroke-opacity:1"
       d="m 250.3125,254.375 0,28.75 0,47.5 166.25,0 0,-47.5 0,-28.75 -166.25,0 z"
       id="polygon6325"
       transform="matrix(0.8,0,0,0.8,-0.25,0)"
       inkscape:connector-curvature="0" />
    <path
       style="fill:none;stroke:#000000;stroke-width:1;stroke-miterlimit:4;stroke-dasharray:none;stroke-opacity:1"
       d="m 459.0625,254.375 0,28.75 0,47.5 140,0 0,-47.5 0,-28.75 -140,0 z"
       id="polygon6331"
       transform="matrix(0.8,0,0,0.8,-0.25,0)"
       inkscape:connector-curvature="0" />
    <path
       style="fill:none;stroke:#000000;stroke-width:1;stroke-miterlimit:4;stroke-dasharray:none;stroke-opacity:1"
       d="m 255.3125,385.625 0,28.75 0,47.5 155,0 0,-47.5 0,-28.75 -155,0 z"
       id="polygon6337"
       transform="matrix(0.8,0,0,0.8,-0.25,0)"
       inkscape:connector-curvature="0" />
    <path
       style="fill:none;stroke:#000000;stroke-width:1;stroke-miterlimit:4;stroke-dasharray:none;stroke-opacity:1"
       d="m 454.0625,385.625 0,28.75 0,47.5 151.25,0 0,-47.5 0,-28.75 -151.25,0 z"
       id="polygon6343"
       transform="matrix(0.8,0,0,0.8,-0.25,0)"
       inkscape:connector-curvature="0" />
    <path
       style="fill:none;stroke:#000000;stroke-width:1;stroke-miterlimit:4;stroke-dasharray:none;stroke-opacity:1"
       d="m 99.0625,535 0,28.75 0,28.75 153.75,0 0,-28.75 0,-28.75 -153.75,0 z"
       id="polygon6349"
       transform="matrix(0.8,0,0,0.8,-0.25,0)"
       inkscape:connector-curvature="0" />
    <path
       style="fill:none;stroke:#000000;stroke-width:1;stroke-miterlimit:4;stroke-dasharray:none;stroke-opacity:1"
       d="m 295.3125,535 0,28.75 0,28.75 120,0 0,-28.75 0,-28.75 -120,0 z"
       id="polygon6355"
       transform="matrix(0.8,0,0,0.8,-0.25,0)"
       inkscape:connector-curvature="0" />
    <path
       style="fill:none;stroke:#000000;stroke-width:0.80000001;stroke-miterlimit:4;stroke-dasharray:none;stroke-opacity:1"
       d="m 370,413 0,23 0,53 107,0 0,-53 0,-23 -107,0 z"
       id="polygon6361"
       inkscape:connector-curvature="0" />
    <path
       style="display:inline;fill:none;stroke:#000000;stroke-width:1;stroke-miterlimit:4;stroke-dasharray:none;stroke-opacity:1"
       d="m 15.3125,666.25 0,28.75 0,28.75 102.5,0 0,-28.75 0,-28.75 -102.5,0 z"
       id="polygon6369"
       transform="matrix(0.8,0,0,0.8,-0.25,0)"
       inkscape:connector-curvature="0" />
    <path
       style="display:inline;fill:none;stroke:#000000;stroke-width:1;stroke-miterlimit:4;stroke-dasharray:none;stroke-opacity:1"
       d="m 160.3125,666.25 0,28.75 0,28.75 102.5,0 0,-28.75 0,-28.75 -102.5,0 z"
       id="polygon6375"
       transform="matrix(0.8,0,0,0.8,-0.25,0)"
       inkscape:connector-curvature="0" />
    <path
       style="display:inline;fill:none;stroke:#000000;stroke-width:1;stroke-miterlimit:4;stroke-dasharray:none;stroke-opacity:1"
       d="m 305.3125,666.25 0,28.75 0,28.75 100,0 0,-28.75 0,-28.75 -100,0 z"
       id="polygon6381"
       transform="matrix(0.8,0,0,0.8,-0.25,0)"
       inkscape:connector-curvature="0" />
    <path
       style="display:inline;fill:none;stroke:#000000;stroke-width:1;stroke-miterlimit:4;stroke-dasharray:none;stroke-opacity:1"
       d="m 449.0625,666.25 0,28.75 0,28.75 161.25,0 0,-28.75 0,-28.75 -161.25,0 z"
       id="polygon6387"
       inkscape:connector-curvature="0"
       transform="matrix(0.8,0,0,0.8,-0.25,0)" />
    <path
       style="display:inline;fill:none;stroke:#000000;stroke-width:1;stroke-miterlimit:4;stroke-dasharray:none;stroke-opacity:1"
       d="m 302.8125,778.75 0,28.75 0,28.75 135,0 0,-28.75 0,-28.75 -135,0 z"
       id="polygon6396"
       transform="matrix(0.8,0,0,0.8,-0.25,0)"
       inkscape:connector-curvature="0" />
  </g>
  <g
     inkscape:groupmode="layer"
     id="layer2"
     inkscape:label="Arrows"
     style="display:inline"
     transform="translate(-9.8424562,-5.6)">
    <path
       d="M 344,59.303339 344,93.897"
       id="path4669"
       inkscape:connector-curvature="0"
       style="fill:none;stroke:#000000;marker-start:url(#marker6268)"
       sodipodi:nodetypes="cc" />
    <path
       d="M 317.25426,164.19907 291.597,198.698"
       id="path4689"
       inkscape:connector-curvature="0"
       style="fill:none;stroke:#000000;marker-start:url(#Arrow1Lstart)"
       sodipodi:nodetypes="cc" />
    <path
       d="M 369.85793,163.82912 397.074,198.698"
       id="path4709"
       inkscape:connector-curvature="0"
       style="fill:none;stroke:#000000;marker-start:url(#marker6220)"
       sodipodi:nodetypes="cc" />
    <path
       d="m 266,270.04023 0,33.65777"
       id="path4729"
       inkscape:connector-curvature="0"
       style="fill:none;stroke:#000000;marker-start:url(#marker6224)"
       sodipodi:nodetypes="cc" />
    <path
       d="M 224.59532,375.24268 169.86,423.813"
       id="path4747"
       inkscape:connector-curvature="0"
       style="fill:none;stroke:#000000;marker-start:url(#marker6228)"
       sodipodi:nodetypes="cc" />
    <path
       d="M 271.31127,374.95126 279.734,423.813"
       id="path4765"
       inkscape:connector-curvature="0"
       style="fill:none;stroke:#000000;marker-start:url(#marker6232)"
       sodipodi:nodetypes="cc" />
    <path
       d="M 116.888,478.98225 75.1384,528.79"
       id="path4783"
       inkscape:connector-curvature="0"
       style="fill:none;stroke:#000000;marker-start:url(#marker6236)"
       sodipodi:nodetypes="cc" />
    <path
       d="M 146.90411,479.10911 161.621,528.79"
       id="path4801"
       inkscape:connector-curvature="0"
       style="fill:none;stroke:#000000;marker-start:url(#marker6240)"
       sodipodi:nodetypes="cc" />
    <path
       d="m 284,480.0273 0,48.7627"
       id="path4819"
       inkscape:connector-curvature="0"
       style="fill:none;stroke:#000000;marker-start:url(#marker6244)"
       sodipodi:nodetypes="cc" />
    <path
       d="m 423,269.48531 0,34.21269"
       id="path4839"
       inkscape:connector-curvature="0"
       style="fill:none;stroke:#000000;marker-start:url(#marker6248)"
       sodipodi:nodetypes="cc" />
    <path
       d="m 423,375.00226 0,33.65474"
       id="path4861"
       inkscape:connector-curvature="0"
       style="fill:none;stroke:#000000;marker-start:url(#marker6252)"
       sodipodi:nodetypes="cc" />
    <path
       d="m 423,494.4355 0,34.5105"
       id="path4879"
       inkscape:connector-curvature="0"
       style="fill:none;stroke:#000000;marker-start:url(#marker6256)"
       sodipodi:nodetypes="cc" />
    <path
       d="M 383.87193,583.93177 333.834,618.7842"
       id="path4897"
       inkscape:connector-curvature="0"
       style="fill:none;stroke:#000000;marker-start:url(#marker6260)"
       sodipodi:nodetypes="cc" />
    <path
       d="M 209.42287,584.57917 258.166,618.7842"
       id="path4904"
       inkscape:connector-curvature="0"
       style="fill:none;stroke:#000000;marker-start:url(#marker6264)"
       sodipodi:nodetypes="cc" />
  </g>
</svg>
